<svg xmlns="http://www.w3.org/2000/svg" xmlns:xlink="http://www.w3.org/1999/xlink" viewBox="0,0,256,256" width="64px" height="64px" fill-rule="nonzero"><g fill="#ffffff" fill-rule="nonzero" stroke="none" stroke-width="1" stroke-linecap="butt" stroke-linejoin="miter" stroke-miterlimit="10" stroke-dasharray="" stroke-dashoffset="0" font-family="none" font-weight="none" font-size="none" text-anchor="none" style="mix-blend-mode: normal"><g transform="scale(4,4)"><path d="M58,2v2h2v-2zM60,4v2h2v-2zM60,6h-2v2h2zM58,6v-2h-2v2zM45.04688,5.00391c-0.39951,-0.01725 -0.77089,0.20516 -0.94427,0.56551c-0.17337,0.36035 -0.11541,0.78933 0.14739,1.09074c3.815,4.339 5.75,9.83984 5.75,16.33984c-0.01543,13.80072 -11.19928,24.98457 -25,25c-8.08197,0.12722 -15.67756,-3.85072 -20.17578,-10.56641c-0.27076,-0.38567 -0.77402,-0.52999 -1.20802,-0.34641c-0.434,0.18358 -0.68094,0.64523 -0.59276,1.10813c2.64674,13.88898 14.83799,23.90428 28.97656,23.80469c16.56078,-0.01874 29.98126,-13.43922 30,-30c0.16691,-11.42266 -6.29224,-21.90975 -16.56836,-26.90039c-0.12058,-0.05726 -0.25141,-0.0898 -0.38477,-0.0957zM36.125,6.00195c-0.81674,-0.03406 -1.61201,0.26664 -2.20189,0.83256c-0.58988,0.56592 -0.92329,1.34804 -0.92311,2.16549c0,1.65685 1.34315,3 3,3c1.63959,0.01002 2.98351,-1.29817 3.01768,-2.93744c0.03416,-1.63927 -1.25409,-3.00231 -2.89268,-3.06061zM36,8c0.55228,0 1,0.44772 1,1c0,0.55228 -0.44772,1 -1,1c-0.55228,0 -1,-0.44772 -1,-1c0,-0.55228 0.44772,-1 1,-1zM48.54102,9.24219c7.29641,5.26842 11.57151,13.75886 11.45898,22.75781c-0.01763,15.45666 -12.54334,27.98237 -28,28c-11.42927,0.08957 -21.69982,-6.9631 -25.7207,-17.66211c4.93223,5.00312 11.69602,7.77144 18.7207,7.66211c14.90483,-0.01653 26.98347,-12.09517 27,-27c0.07285,-4.80985 -1.12001,-9.55434 -3.45898,-13.75781zM21,10v2h2v-2zM23,12v2h2v-2zM23,14h-2v2h2zM21,14v-2h-2v2zM32.95313,13.00195c-0.41497,0.0191 -0.77492,0.29275 -0.9043,0.6875l-1.86914,5.60742l-3.62891,1.8125c-0.33998,0.16896 -0.55495,0.51586 -0.55495,0.89551c0,0.37964 0.21498,0.72655 0.55495,0.89551h0.00195l3.62891,1.81445l1.86914,5.60547c0.1347,0.41068 0.51799,0.68835 0.9502,0.68835c0.4322,0 0.8155,-0.27767 0.9502,-0.68835l1.86914,-5.60547l3.62695,-1.81445c0.33998,-0.16896 0.55495,-0.51586 0.55495,-0.89551c0,-0.37964 -0.21498,-0.72655 -0.55495,-0.89551l-3.62891,-1.8125l-1.86914,-5.60742c-0.13991,-0.42689 -0.54733,-0.70809 -0.99609,-0.6875zM5.125,17.00195c-0.81674,-0.03406 -1.61201,0.26664 -2.20189,0.83256c-0.58988,0.56592 -0.92329,1.34804 -0.92311,2.16549c0,1.65685 1.34315,3 3,3c1.6396,0.01002 2.98352,-1.29817 3.01768,-2.93744c0.03416,-1.63927 -1.25409,-3.00231 -2.89268,-3.06061zM33,17.16211l1.05078,3.1543c0.08354,0.25131 0.26335,0.45923 0.5,0.57813l2.21289,1.10547l-2.21094,1.10547c-0.23665,0.1189 -0.41646,0.32681 -0.5,0.57813l-1.05273,3.1543l-1.05078,-3.1543c-0.08354,-0.25131 -0.26335,-0.45923 -0.5,-0.57812l-2.21289,-1.10547l2.21094,-1.09961c0.23704,-0.11935 0.41691,-0.32803 0.5,-0.58008zM5,19c0.55228,0 1,0.44772 1,1c0,0.55228 -0.44772,1 -1,1c-0.55228,0 -1,-0.44772 -1,-1c0,-0.55228 0.44772,-1 1,-1zM13,22v2h2v-2zM15,24v2h2v-2zM15,26h-2v2h2zM13,26v-2h-2v2zM20.95313,26.00195c-0.41497,0.0191 -0.77492,0.29275 -0.9043,0.6875l-1.86914,5.60742l-3.62695,1.80273c-0.34069,0.17036 -0.55501,0.51948 -0.55273,0.90039c-0.00228,0.38091 0.21204,0.73003 0.55273,0.90039l3.62891,1.81445l1.86914,5.60547c0.1347,0.41068 0.51799,0.68835 0.9502,0.68835c0.4322,0 0.8155,-0.27767 0.9502,-0.68835l1.86914,-5.60547l3.62695,-1.81445c0.33998,-0.16896 0.55495,-0.51586 0.55495,-0.89551c0,-0.37964 -0.21498,-0.72655 -0.55495,-0.89551l-3.62891,-1.8125l-1.86914,-5.60742c-0.13991,-0.42689 -0.54733,-0.70809 -0.99609,-0.6875zM41,27v2h2v-2zM43,29v2h2v-2zM43,31h-2v2h2zM41,31v-2h-2v2zM21,30.16211l1.05078,3.1543c0.08354,0.25131 0.26335,0.45923 0.5,0.57813l2.21289,1.10547l-2.21094,1.09961c-0.23704,0.11935 -0.41691,0.32803 -0.5,0.58008l-1.05273,3.1582l-1.05078,-3.1543c-0.08354,-0.25131 -0.26335,-0.45923 -0.5,-0.57812l-2.21289,-1.10547l2.21094,-1.09961c0.23704,-0.11935 0.41691,-0.32803 0.5,-0.58008zM34,36c-1.65685,0 -3,1.34315 -3,3c0,1.65685 1.34315,3 3,3c1.65685,0 3,-1.34315 3,-3c0,-1.65685 -1.34315,-3 -3,-3zM33.98828,38c0.00391,-0.00002 0.00781,-0.00002 0.01172,0c0.55228,0 1,0.44772 1,1c-0.00004,0.55075 -0.44539,0.9978 -0.99614,0.99992c-0.55075,0.00213 -0.99954,-0.44147 -1.00383,-0.9922c-0.00429,-0.55073 0.43754,-1.00127 0.98825,-1.00772zM56,54v2h2v-2zM58,56v2h2v-2zM58,58h-2v2h2zM56,58v-2h-2v2zM4,56v2h2v-2zM6,58v2h2v-2zM6,60h-2v2h2zM4,60v-2h-2v2z"></path></g></g></svg>