<svg xmlns="http://www.w3.org/2000/svg" xmlns:xlink="http://www.w3.org/1999/xlink" viewBox="0,0,256,256" width="120px" height="120px" fill-rule="nonzero"><g fill="none" fill-rule="nonzero" stroke="none" stroke-width="1" stroke-linecap="butt" stroke-linejoin="miter" stroke-miterlimit="10" stroke-dasharray="" stroke-dashoffset="0" font-family="none" font-weight="none" font-size="none" text-anchor="none" style="mix-blend-mode: normal"><g transform="scale(0.53327,0.53327)"><path d="M240.354,8.005c-109.832,-0.88 -202.448,74.713 -227.3,177.031c-2.266,9.329 4.071,18.558 13.601,19.721l61.15,7.464c7.759,0.947 15.078,-3.849 17.275,-11.351c17.019,-58.124 70.961,-100.378 134.534,-99.865c76.77,0.61 138.5,63.34 137.89,140.1c-0.872,107.927 -118.873,172.743 -210.04,118.39c21.154,-15.854 20.882,-15.826 30.81,-23.09c15.124,-11.065 9.459,-34.846 -9.11,-37.65c-1.771,-0.267 -144.489,-21.847 -144.64,-21.87c-13.56,-2.05 -25.38,9.31 -23.87,22.93l16.1,145.39c2.06,18.66 25.78,25.4 37.28,10.59l24.16,-31.03c149.997,114.209 370.769,9.364 372.3,-182.91c1.03,-128.131 -102.01,-232.83 -230.14,-233.85z" fill="#ffffff"></path><path d="M190.368,298.969c19.259,3.973 13.644,33.067 -5.801,30.132c-86.058,-12.992 -103.379,-15.646 -103.473,-15.646c-13.56,-2.05 -25.38,9.31 -23.87,22.93l12.095,109.246c2.338,21.116 -29.872,23.998 -32.565,-0.426l-16.1,-145.39c-1.51,-13.62 10.31,-24.98 23.87,-22.93c0.1,0.013 144.873,21.884 145.844,22.084z" fill="#fdff9c"></path><path d="M83.234,282.734c17.187,152.949 16.138,141.793 15.6,142.51c-0.908,-0.692 1.959,-3.865 -24.8,30.55c-11.51,14.802 -35.22,8.07 -37.28,-10.59l-16.1,-145.39c-1.51,-13.62 10.31,-24.98 23.87,-22.93z" fill="#40c057"></path><path d="M289.654,44.984c-97.726,-5.828 -195.59,50.507 -232.429,151.608c-5.044,13.843 -19.546,9.508 -30.57,8.165c-9.53,-1.161 -15.871,-10.391 -13.601,-19.721c30.091,-123.898 155.746,-201.288 281.289,-170.273c18.143,4.483 13.966,31.333 -4.689,30.221z" fill="#fdff9c"></path><path d="M81.094,313.454c-13.56,-2.05 -25.38,9.31 -23.87,22.93l12.095,109.246c1.405,12.686 -12.556,21.723 -23.272,14.79c-11.171,-7.227 -7.917,-2.884 -25.393,-160.606c-1.509,-13.62 10.31,-24.98 23.87,-22.93l38.71,5.85c4.474,39.803 5.316,30.72 -2.14,30.72z" fill="#e3f7fc"></path><path d="M84.137,362.445l-8.174,-72.713l-32.636,-4.934c-8.367,-1.264 -15.649,5.742 -14.717,14.138l16.098,145.384c0.523,4.724 -3.169,8.881 -7.961,8.881c-4.024,0 -7.488,-3.028 -7.941,-7.12l-16.099,-145.383c-2.089,-18.839 14.237,-34.559 33.011,-31.721c2.21,0.334 123.94,18.742 144.64,21.867c25.676,3.876 33.642,36.909 12.644,52.017l-20.688,15.504c86.25,40.97 186.422,-21.738 187.187,-117.321c0.279,-34.991 -13.083,-67.997 -37.627,-92.936c-73.803,-74.992 -202.394,-36.474 -222.075,67.327c-0.823,4.341 -5.007,7.197 -9.35,6.37c-4.341,-0.823 -7.193,-5.009 -6.37,-9.35c13.23,-69.785 74.504,-120.015 145.6,-119.453c81.246,0.649 146.47,66.916 145.82,148.17c-0.906,113.378 -125.154,183.048 -222.131,125.191c-4.894,-2.919 -5.241,-9.88 -0.676,-13.289c0.101,-0.076 30.825,-23.101 30.928,-23.174c9.436,-6.745 5.858,-21.501 -5.65,-23.235l-95.628,-14.457l7.694,68.45c0.494,4.391 -2.666,8.35 -7.056,8.843c-4.381,0.494 -8.349,-2.657 -8.843,-7.056zM409.56,71.653c-90.292,-91.747 -233.062,-94.105 -326.6,-14.434c-43.409,36.973 -72.304,88.174 -81.362,144.169c-0.706,4.361 2.258,8.469 6.62,9.175c4.362,0.704 8.469,-2.258 9.175,-6.62c17.473,-108.02 113.289,-188.862 222.901,-187.939c123.799,0.989 223.192,101.972 222.202,225.783c-0.478,59.831 -24.227,115.894 -66.872,157.863c-80.549,79.272 -205.287,85.134 -292.589,18.744c-3.519,-2.676 -8.537,-1.992 -11.21,1.525c-2.675,3.517 -1.992,8.536 1.525,11.21c93.946,71.443 227.509,64.55 313.498,-20.076c94.543,-93.044 95.764,-244.849 2.712,-339.4z" fill="#000000"></path></g></g></svg>