<svg fill="#40C057" xmlns="http://www.w3.org/2000/svg"  viewBox="0 0 66 66" width="66px" height="66px"><path d="M33 11.67c-11.76 0-21.33 9.57-21.33 21.33S21.24 54.33 33 54.33 54.33 44.76 54.33 33 44.76 11.67 33 11.67zM29.05 20.26c-4.06 1.26-7.3 4.43-8.67 8.47-.19.56-.71.91-1.26.91-.14 0-.29-.02-.43-.07-.7-.24-1.07-.99-.83-1.69 1.64-4.85 5.53-8.65 10.41-10.16.71-.22 1.45.18 1.67.88C30.15 19.3 29.76 20.05 29.05 20.26zM33 8.58c.74 0 1.33-.6 1.33-1.33V2.69c0-.74-.6-1.33-1.33-1.33s-1.33.6-1.33 1.33v4.55C31.67 7.98 32.26 8.58 33 8.58zM33 57.42c-.74 0-1.33.6-1.33 1.33v4.55c0 .74.6 1.33 1.33 1.33s1.33-.6 1.33-1.33v-4.55C34.33 58.02 33.74 57.42 33 57.42zM63.3 31.67h-4.55c-.74 0-1.33.6-1.33 1.33s.6 1.33 1.33 1.33h4.55c.74 0 1.33-.6 1.33-1.33S64.04 31.67 63.3 31.67zM2.7 31.67c-.74 0-1.33.6-1.33 1.33s.6 1.33 1.33 1.33h4.55c.74 0 1.33-.6 1.33-1.33s-.6-1.33-1.33-1.33H2.7zM51.21 16.12c.34 0 .68-.13.94-.39l3.22-3.22c.52-.52.52-1.36 0-1.89s-1.36-.52-1.89 0l-3.22 3.22c-.52.52-.52 1.36 0 1.89C50.53 15.99 50.87 16.12 51.21 16.12zM13.85 50.27l-3.22 3.22c-.52.52-.52 1.37 0 1.89.26.26.6.39.94.39s.68-.13.94-.39l3.22-3.22c.52-.52.52-1.37 0-1.89C15.21 49.75 14.37 49.75 13.85 50.27zM52.15 50.27c-.52-.52-1.36-.52-1.89 0-.52.52-.52 1.37 0 1.89l3.22 3.22c.26.26.6.39.94.39s.68-.13.94-.39c.52-.52.52-1.37 0-1.89L52.15 50.27zM13.85 15.73c.26.26.6.39.94.39s.68-.13.94-.39c.52-.52.52-1.36 0-1.89l-3.22-3.22c-.52-.52-1.36-.52-1.89 0-.52.52-.52 1.36 0 1.89L13.85 15.73zM22.58 11.33c.21.51.71.82 1.23.82.17 0 .34-.03.51-.1.68-.28 1-1.06.72-1.74l-3.52-8.49c-.28-.68-1.07-1-1.74-.72-.68.28-1 1.06-.72 1.74L22.58 11.33zM43.42 54.66c-.28-.68-1.07-1-1.74-.72-.68.28-1 1.06-.72 1.74l3.52 8.49C44.68 64.69 45.18 65 45.7 65c.17 0 .34-.03.51-.1.68-.28 1-1.06.72-1.74L43.42 54.66zM1.83 21.53l8.13 3.37c.17.07.34.1.51.1.52 0 1.02-.31 1.23-.82.28-.68-.04-1.46-.72-1.74l-8.13-3.37c-.68-.28-1.46.04-1.74.72C.82 20.47 1.15 21.25 1.83 21.53zM64.17 44.47l-8.49-3.52c-.68-.28-1.46.04-1.74.72-.28.68.04 1.46.72 1.74l8.49 3.52c.17.07.34.1.51.1.52 0 1.02-.31 1.23-.82C65.18 45.53 64.85 44.75 64.17 44.47zM12.24 42.12c-.25-.69-1.02-1.05-1.71-.8l-8.65 3.13c-.69.25-1.05 1.01-.8 1.71.2.54.71.88 1.25.88.15 0 .3-.03.45-.08l8.65-3.13C12.13 43.57 12.49 42.81 12.24 42.12zM53.95 24.32c.21.51.71.82 1.23.82.17 0 .34-.03.51-.1l8.49-3.52c.68-.28 1-1.06.72-1.74-.28-.68-1.06-1-1.74-.72l-8.49 3.52C53.99 22.86 53.66 23.64 53.95 24.32zM24.33 53.94c-.68-.28-1.46.04-1.74.72l-3.52 8.49c-.28.68.04 1.46.72 1.74.17.07.34.1.51.1.52 0 1.02-.31 1.23-.82l3.52-8.49C25.33 55.01 25 54.23 24.33 53.94zM41.68 12.06c.17.07.34.1.51.1.52 0 1.02-.31 1.23-.82l3.52-8.49c.28-.68-.04-1.46-.72-1.74-.68-.28-1.46.04-1.74.72l-3.52 8.49C40.67 10.99 41 11.77 41.68 12.06z"/></svg>