<svg xmlns="http://www.w3.org/2000/svg" xmlns:xlink="http://www.w3.org/1999/xlink" viewBox="0,0,256,256" width="100px" height="100px" fill-rule="nonzero"><g fill="#ffffff" fill-rule="nonzero" stroke="none" stroke-width="1" stroke-linecap="butt" stroke-linejoin="miter" stroke-miterlimit="10" stroke-dasharray="" stroke-dashoffset="0" font-family="none" font-weight="none" font-size="none" text-anchor="none" style="mix-blend-mode: normal"><g transform="scale(2.56,2.56)"><path d="M49.5,5c-3.634,0 -6.66761,2.5712 -7.34961,6.0332c-0.216,-0.021 -0.43439,-0.0332 -0.65039,-0.0332c-2.69825,0 -5.0163,1.6537 -5.99805,4h-7.50195c-4.411,0 -8,3.589 -8,8v54c0,4.411 3.589,8 8,8h44c4.411,0 8,-3.589 8,-8v-54c0,-4.411 -3.589,-8 -8,-8h-8.50195c-0.98174,-2.3463 -3.2998,-4 -5.99805,-4c-0.216,0 -0.43439,0.0122 -0.65039,0.0332c-0.682,-3.462 -3.71561,-6.0332 -7.34961,-6.0332zM49.5,7c2.949,0 5.35833,2.31177 5.48633,5.25977c0.014,0.307 0.16702,0.58758 0.41602,0.76758c0.248,0.178 0.56538,0.23239 0.85938,0.15039c0.411,-0.118 0.82728,-0.17773 1.23828,-0.17773c2.481,0 4.5,2.019 4.5,4.5c0,0.168 -0.00834,0.335 -0.02734,0.5h-24.94531c-0.018,-0.165 -0.02734,-0.332 -0.02734,-0.5c0,-2.481 2.019,-4.5 4.5,-4.5c0.411,0 0.82728,0.05973 1.23828,0.17773c0.294,0.082 0.61037,0.02961 0.85938,-0.15039c0.249,-0.18 0.40302,-0.46058 0.41602,-0.76758c0.128,-2.948 2.53733,-5.25977 5.48633,-5.25977zM49.5,10c-1.378,0 -2.5,1.121 -2.5,2.5c0,1.379 1.122,2.5 2.5,2.5c1.378,0 2.5,-1.121 2.5,-2.5c0,-1.379 -1.122,-2.5 -2.5,-2.5zM49.5,11c0.827,0 1.5,0.673 1.5,1.5c0,0.827 -0.673,1.5 -1.5,1.5c-0.827,0 -1.5,-0.673 -1.5,-1.5c0,-0.827 0.673,-1.5 1.5,-1.5zM28,17h7.02539c-0.01268,0.16547 -0.02539,0.33133 -0.02539,0.5c0,0.602 0.08214,1.19748 0.24414,1.77148c0.122,0.431 0.51589,0.72852 0.96289,0.72852h26.58594c0.447,0 0.84089,-0.29752 0.96289,-0.72852c0.162,-0.574 0.24414,-1.16948 0.24414,-1.77148c0,-0.16867 -0.01271,-0.33453 -0.02539,-0.5h8.02539c3.309,0 6,2.691 6,6v54c0,3.309 -2.691,6 -6,6h-44c-3.309,0 -6,-2.691 -6,-6v-54c0,-3.309 2.691,-6 6,-6zM30.5,23c-1.93,0 -3.5,1.57 -3.5,3.5v48c0,1.93 1.57,3.5 3.5,3.5h39c1.93,0 3.5,-1.57 3.5,-3.5v-4c0,-0.276 -0.224,-0.5 -0.5,-0.5c-0.276,0 -0.5,0.224 -0.5,0.5v4c0,1.379 -1.122,2.5 -2.5,2.5h-39c-1.378,0 -2.5,-1.121 -2.5,-2.5v-48c0,-1.379 1.122,-2.5 2.5,-2.5h39c1.378,0 2.5,1.121 2.5,2.5v29c0,0.276 0.224,0.5 0.5,0.5c0.276,0 0.5,-0.224 0.5,-0.5v-29c0,-1.93 -1.57,-3.5 -3.5,-3.5zM33.5,36c-0.27613,0.00003 -0.49997,0.22387 -0.5,0.5v6c0.00003,0.27613 0.22387,0.49997 0.5,0.5h6c0.27613,-0.00003 0.49997,-0.22387 0.5,-0.5v-6c-0.00003,-0.27613 -0.22387,-0.49997 -0.5,-0.5zM34,37h5v5h-5zM45.5,37c-0.18032,-0.00255 -0.34804,0.09219 -0.43894,0.24794c-0.0909,0.15575 -0.0909,0.34838 0,0.50413c0.0909,0.15575 0.25863,0.25049 0.43894,0.24794h13c0.18032,0.00255 0.34804,-0.09219 0.43894,-0.24794c0.0909,-0.15575 0.0909,-0.34838 0,-0.50413c-0.0909,-0.15575 -0.25863,-0.25049 -0.43894,-0.24794zM61.5,37c-0.18032,-0.00255 -0.34804,0.09219 -0.43894,0.24794c-0.0909,0.15575 -0.0909,0.34838 0,0.50413c0.0909,0.15575 0.25863,0.25049 0.43894,0.24794h5c0.18032,0.00255 0.34804,-0.09219 0.43894,-0.24794c0.0909,-0.15575 0.0909,-0.34838 0,-0.50413c-0.0909,-0.15575 -0.25863,-0.25049 -0.43894,-0.24794zM45.5,41c-0.18032,-0.00255 -0.34804,0.09219 -0.43894,0.24794c-0.0909,0.15575 -0.0909,0.34838 0,0.50413c0.0909,0.15575 0.25863,0.25049 0.43894,0.24794h21c0.18032,0.00255 0.34804,-0.09219 0.43894,-0.24794c0.0909,-0.15575 0.0909,-0.34838 0,-0.50413c-0.0909,-0.15575 -0.25863,-0.25049 -0.43894,-0.24794zM41.49023,47.99609c-0.12976,0.00361 -0.25303,0.05754 -0.34375,0.15039l-3.64648,3.64648l-1.64648,-1.64648c-0.12541,-0.13061 -0.31163,-0.18321 -0.48684,-0.13753c-0.17521,0.04568 -0.31204,0.18251 -0.35772,0.35772c-0.04568,0.17521 0.00693,0.36143 0.13753,0.48684l2,2c0.19527,0.19518 0.51177,0.19518 0.70703,0l4,-4c0.14714,-0.14386 0.19113,-0.36316 0.11086,-0.55264c-0.08028,-0.18947 -0.26844,-0.31042 -0.47414,-0.30478zM33.5,48c-0.27613,0.00003 -0.49997,0.22387 -0.5,0.5v6c0.00003,0.27613 0.22387,0.49997 0.5,0.5h6c0.27613,-0.00003 0.49997,-0.22387 0.5,-0.5v-1c0.00255,-0.18032 -0.09219,-0.34804 -0.24794,-0.43894c-0.15575,-0.0909 -0.34838,-0.0909 -0.50413,0c-0.15575,0.0909 -0.25049,0.25863 -0.24794,0.43894v0.5h-5v-5h4.5c0.18032,0.00255 0.34804,-0.09219 0.43894,-0.24794c0.0909,-0.15575 0.0909,-0.34838 0,-0.50413c-0.0909,-0.15575 -0.25863,-0.25049 -0.43894,-0.24794zM45.5,49c-0.18032,-0.00255 -0.34804,0.09219 -0.43894,0.24794c-0.0909,0.15575 -0.0909,0.34838 0,0.50413c0.0909,0.15575 0.25863,0.25049 0.43894,0.24794h21c0.18032,0.00255 0.34804,-0.09219 0.43894,-0.24794c0.0909,-0.15575 0.0909,-0.34838 0,-0.50413c-0.0909,-0.15575 -0.25863,-0.25049 -0.43894,-0.24794zM45.5,53c-0.18032,-0.00255 -0.34804,0.09219 -0.43894,0.24794c-0.0909,0.15575 -0.0909,0.34838 0,0.50413c0.0909,0.15575 0.25863,0.25049 0.43894,0.24794h4c0.18032,0.00255 0.34804,-0.09219 0.43894,-0.24794c0.0909,-0.15575 0.0909,-0.34838 0,-0.50413c-0.0909,-0.15575 -0.25863,-0.25049 -0.43894,-0.24794zM52.5,53c-0.18032,-0.00255 -0.34804,0.09219 -0.43894,0.24794c-0.0909,0.15575 -0.0909,0.34838 0,0.50413c0.0909,0.15575 0.25863,0.25049 0.43894,0.24794h14c0.18032,0.00255 0.34804,-0.09219 0.43894,-0.24794c0.0909,-0.15575 0.0909,-0.34838 0,-0.50413c-0.0909,-0.15575 -0.25863,-0.25049 -0.43894,-0.24794zM72.5,58c-0.276,0 -0.5,0.224 -0.5,0.5v4c0,0.276 0.224,0.5 0.5,0.5c0.276,0 0.5,-0.224 0.5,-0.5v-4c0,-0.276 -0.224,-0.5 -0.5,-0.5zM33.5,60c-0.27613,0.00003 -0.49997,0.22387 -0.5,0.5v6c0.00003,0.27613 0.22387,0.49997 0.5,0.5h6c0.27613,-0.00003 0.49997,-0.22387 0.5,-0.5v-6c-0.00003,-0.27613 -0.22387,-0.49997 -0.5,-0.5zM34,61h5v5h-5zM45.5,61c-0.18032,-0.00255 -0.34804,0.09219 -0.43894,0.24794c-0.0909,0.15575 -0.0909,0.34838 0,0.50413c0.0909,0.15575 0.25863,0.25049 0.43894,0.24794h4c0.18032,0.00255 0.34804,-0.09219 0.43894,-0.24794c0.0909,-0.15575 0.0909,-0.34838 0,-0.50413c-0.0909,-0.15575 -0.25863,-0.25049 -0.43894,-0.24794zM52.5,61c-0.18032,-0.00255 -0.34804,0.09219 -0.43894,0.24794c-0.0909,0.15575 -0.0909,0.34838 0,0.50413c0.0909,0.15575 0.25863,0.25049 0.43894,0.24794h1c0.18032,0.00255 0.34804,-0.09219 0.43894,-0.24794c0.0909,-0.15575 0.0909,-0.34838 0,-0.50413c-0.0909,-0.15575 -0.25863,-0.25049 -0.43894,-0.24794zM56.5,61c-0.18032,-0.00255 -0.34804,0.09219 -0.43894,0.24794c-0.0909,0.15575 -0.0909,0.34838 0,0.50413c0.0909,0.15575 0.25863,0.25049 0.43894,0.24794h10c0.18032,0.00255 0.34804,-0.09219 0.43894,-0.24794c0.0909,-0.15575 0.0909,-0.34838 0,-0.50413c-0.0909,-0.15575 -0.25863,-0.25049 -0.43894,-0.24794zM45.5,65c-0.18032,-0.00255 -0.34804,0.09219 -0.43894,0.24794c-0.0909,0.15575 -0.0909,0.34838 0,0.50413c0.0909,0.15575 0.25863,0.25049 0.43894,0.24794h15c0.18032,0.00255 0.34804,-0.09219 0.43894,-0.24794c0.0909,-0.15575 0.0909,-0.34838 0,-0.50413c-0.0909,-0.15575 -0.25863,-0.25049 -0.43894,-0.24794zM63.5,65c-0.18032,-0.00255 -0.34804,0.09219 -0.43894,0.24794c-0.0909,0.15575 -0.0909,0.34838 0,0.50413c0.0909,0.15575 0.25863,0.25049 0.43894,0.24794h3c0.18032,0.00255 0.34804,-0.09219 0.43894,-0.24794c0.0909,-0.15575 0.0909,-0.34838 0,-0.50413c-0.0909,-0.15575 -0.25863,-0.25049 -0.43894,-0.24794zM72.5,65c-0.276,0 -0.5,0.224 -0.5,0.5v2c0,0.276 0.224,0.5 0.5,0.5c0.276,0 0.5,-0.224 0.5,-0.5v-2c0,-0.276 -0.224,-0.5 -0.5,-0.5z"></path></g></g></svg>